<svg width="9" height="9" viewBox="0 0 9 9" fill="none" xmlns="http://www.w3.org/2000/svg">
<path d="M7 6C7 6.55229 6.55228 7 6 7V5C6.55228 5 7 5.44772 7 6ZM6 7C6 7.55229 5.55228 8 5 8H4C3.44772 8 3 7.55229 3 7H6ZM5 1C5.55228 1 6 1.44772 6 2H3C3 1.44772 3.44772 1 4 1H5ZM2.5 7C2.22386 7 2 6.77614 2 6.5C2 6.22386 2.22386 6 2.5 6C2.77614 6 3 6.22386 3 6.5V7H2.5ZM3 4C2.44772 4 2 3.55229 2 3C2 2.44772 2.44772 2 3 2V4ZM6.5 3C6.22386 3 6 2.77614 6 2.5V2H6.5C6.77614 2 7 2.22386 7 2.5C7 2.77614 6.77614 3 6.5 3ZM6 5H4C3.44772 5 3 4.55229 3 4H5C5.55228 4 6 4.44772 6 5Z" fill="#0015B7"/>
</svg>
