<svg preserveAspectRatio="none" overflow="visible" style="display: block;" width="76" height="80" viewBox="0 0 76 80" fill="none" xmlns="http://www.w3.org/2000/svg">
<g id="vector">
<g id="vector_2">
<path d="M53.2 0.84C51.56 -0.8 48.72 0.32 48.72 2.6V16.56C48.72 22.4 53.68 27.24 59.72 27.24C63.52 27.28 68.8 27.28 73.32 27.28C75.6 27.28 76.8 24.6 75.2 23C69.44 17.2 59.12 6.76 53.2 0.84Z" fill="#FF732D"/>
<path d="M72 32.76H60.44C50.96 32.76 43.24 25.04 43.24 15.56V4C43.24 1.8 41.44 0 39.24 0H22.28C9.96 0 0 8 0 22.28V57.72C0 72 9.96 80 22.28 80H53.72C66.04 80 76 72 76 57.72V36.76C76 34.56 74.2 32.76 72 32.76ZM36 63H20C18.36 63 17 61.64 17 60C17 58.36 18.36 57 20 57H36C37.64 57 39 58.36 39 60C39 61.64 37.64 63 36 63ZM44 47H20C18.36 47 17 45.64 17 44C17 42.36 18.36 41 20 41H44C45.64 41 47 42.36 47 44C47 45.64 45.64 47 44 47Z" fill="#FF732D"/>
</g>
</g>
</svg>
